<svg xmlns="http://www.w3.org/2000/svg" width="1200" height="630" viewBox="0 0 1200 630">
  <defs>
    <linearGradient id="bg" x1="0" y1="0" x2="1" y2="1"><stop offset="0%" stop-color="#060b18"/><stop offset="100%" stop-color="#0d1a33"/></linearGradient>
    <radialGradient id="g1" cx="18%" cy="12%" r="55%"><stop offset="0%" stop-color="#06b6d4" stop-opacity=".38"/><stop offset="100%" stop-color="#06b6d4" stop-opacity="0"/></radialGradient>
    <radialGradient id="g2" cx="86%" cy="70%" r="55%"><stop offset="0%" stop-color="#7c3aed" stop-opacity=".40"/><stop offset="100%" stop-color="#7c3aed" stop-opacity="0"/></radialGradient>
  </defs>
  <rect width="1200" height="630" fill="url(#bg)"/><rect width="1200" height="630" fill="url(#g1)"/><rect width="1200" height="630" fill="url(#g2)"/>
  <g stroke="#06b6d4" stroke-opacity=".30" fill="none" stroke-width="1.6">
    <path d="M0 400 Q 150 360 300 400 T 600 400 T 900 400 T 1200 400"/>
    <path d="M0 440 Q 150 400 300 440 T 600 440 T 900 440 T 1200 440" stroke="#7c3aed" stroke-opacity=".28"/>
    <path d="M0 480 Q 150 440 300 480 T 600 480 T 900 480 T 1200 480" stroke-opacity=".18"/>
  </g>
  <g fill="#bfe9ff" fill-opacity=".5"><circle cx="980" cy="180" r="5"/><circle cx="1040" cy="230" r="3.5"/><circle cx="920" cy="245" r="4"/><circle cx="1090" cy="160" r="3"/><circle cx="1010" cy="300" r="4.5"/></g>
  <text x="80" y="250" font-family="Georgia,serif" font-size="72" fill="#ffffff" font-weight="500">Md Kausar Hamid Miji</text>
  <text x="80" y="318" font-family="Helvetica,Arial,sans-serif" font-size="34" fill="#8ee6f6">Nanophotonics · Plasmonics · Computational Electromagnetics</text>
  <text x="80" y="376" font-family="monospace" font-size="25" fill="#9fb0cd">FDTD · Meep · Tidy3D · Machine Learning</text>
  <rect x="80" y="430" width="120" height="4" fill="#06b6d4"/>
</svg>
